<svg xmlns="http://www.w3.org/2000/svg" width="900" height="250" viewBox="0 0 900 250" role="img" aria-labelledby="title desc">
  <title id="title">Technology focus</title><desc id="desc">Technology focus across Python, JavaScript, HTML and CSS, and SQL.</desc>
  <defs><linearGradient id="bg" x1="0" y1="0" x2="1" y2="1"><stop stop-color="#0d1117"/><stop offset="1" stop-color="#111827"/></linearGradient><linearGradient id="bar" x1="0" y1="0" x2="1" y2="0"><stop stop-color="#06b6d4"/><stop offset=".52" stop-color="#6366f1"/><stop offset="1" stop-color="#d946ef"/></linearGradient></defs>
  <rect width="900" height="250" rx="18" fill="url(#bg)" stroke="#30363d"/>
  <text x="32" y="45" fill="#f0f6fc" font-family="Segoe UI,Arial,sans-serif" font-size="23" font-weight="700">Technology Focus</text>
  <text x="32" y="68" fill="#8b949e" font-family="Segoe UI,Arial,sans-serif" font-size="12">Core tools used across AI, SaaS and automation projects</text>
  <g font-family="Segoe UI,Arial,sans-serif" font-size="14">
    <text x="32" y="108" fill="#f0f6fc">Python</text><rect x="150" y="94" width="690" height="15" rx="7" fill="#21262d"/><rect x="150" y="94" width="620" height="15" rx="7" fill="url(#bar)"/>
    <text x="32" y="145" fill="#f0f6fc">JavaScript</text><rect x="150" y="131" width="690" height="15" rx="7" fill="#21262d"/><rect x="150" y="131" width="520" height="15" rx="7" fill="url(#bar)"/>
    <text x="32" y="182" fill="#f0f6fc">HTML / CSS</text><rect x="150" y="168" width="690" height="15" rx="7" fill="#21262d"/><rect x="150" y="168" width="570" height="15" rx="7" fill="url(#bar)"/>
    <text x="32" y="219" fill="#f0f6fc">SQL</text><rect x="150" y="205" width="690" height="15" rx="7" fill="#21262d"/><rect x="150" y="205" width="415" height="15" rx="7" fill="url(#bar)"/>
  </g>
</svg>
